<svg width="20" height="19" viewBox="0 0 20 19" fill="none" xmlns="http://www.w3.org/2000/svg">
<path d="M12.1792 0.9556C12.7103 1.45927 13.1435 2.28162 13.1888 3.01894C13.2112 4.18017 12.9933 5.06686 12.1854 5.93592C11.6013 6.50812 10.8633 6.81735 10.0568 6.89066C10.0568 7.30316 10.0568 7.71566 10.0568 8.14066C10.2115 8.17933 10.3662 8.218 10.5256 8.25785C11.0173 8.48796 11.384 8.89978 11.5754 9.40531C11.7056 9.89872 11.6543 10.4463 11.4631 10.9141C11.4858 10.9248 11.5085 10.9355 11.5319 10.9466C11.6173 10.9912 11.6907 11.0403 11.7681 11.0975C11.7969 11.1187 11.8257 11.14 11.8554 11.1618C11.8862 11.1848 11.9171 11.2078 11.9489 11.2315C11.9812 11.2553 12.0134 11.2792 12.0466 11.3037C12.2266 11.4373 12.4054 11.5723 12.5832 11.7088C12.6196 11.7367 12.656 11.7646 12.6934 11.7933C12.7637 11.8473 12.8338 11.9015 12.9037 11.9558C13.0816 12.0928 13.257 12.2148 13.4553 12.3203C13.4804 12.2958 13.5055 12.2712 13.5314 12.2459C13.9219 11.876 14.3503 11.5988 14.8615 11.4219C14.9048 11.4066 14.9481 11.3912 14.9928 11.3754C15.8479 11.1165 16.7883 11.2047 17.5758 11.615C17.6481 11.654 17.7198 11.6939 17.7912 11.7344C17.8245 11.7533 17.8578 11.7722 17.8921 11.7916C18.6743 12.2779 19.1726 13.079 19.3928 13.961C19.5292 14.5573 19.479 15.2613 19.2756 15.836C19.2619 15.8764 19.2482 15.9168 19.2341 15.9585C18.9056 16.8312 18.2381 17.4861 17.4024 17.8779C16.5509 18.2554 15.5854 18.2362 14.7172 17.9342C14.3786 17.8006 14.0944 17.6176 13.8068 17.3985C13.7784 17.3773 13.75 17.3562 13.7208 17.3344C13.0777 16.8168 12.659 15.9832 12.5568 15.1719C12.5142 14.3183 12.6347 13.6304 13.0256 12.8672C13.0029 12.8565 12.9802 12.8458 12.9568 12.8347C12.8714 12.7902 12.798 12.741 12.7206 12.6838C12.6918 12.6626 12.663 12.6413 12.6333 12.6195C12.6024 12.5965 12.5716 12.5735 12.5398 12.5498C12.5075 12.526 12.4753 12.5022 12.4421 12.4776C12.1531 12.2631 11.8668 12.045 11.5815 11.8255C11.4152 11.6979 11.2488 11.5743 11.0725 11.461C10.9682 11.5108 10.8746 11.5664 10.7795 11.6319C10.3248 11.9115 9.79244 11.9751 9.27014 11.8746C8.99695 11.8046 8.76644 11.6932 8.56255 11.4977C8.54004 11.4856 8.51754 11.4735 8.49435 11.461C8.35139 11.5064 8.2443 11.5725 8.12661 11.6642C8.094 11.6894 8.0614 11.7145 8.02781 11.7405C7.99324 11.7675 7.95867 11.7945 7.92306 11.8223C7.84975 11.8789 7.77641 11.9355 7.70303 11.992C7.66585 12.0206 7.62868 12.0493 7.59038 12.0788C7.38773 12.2336 7.18189 12.384 6.976 12.5345C6.94733 12.5555 6.91866 12.5764 6.88912 12.5981C6.86259 12.6175 6.83605 12.6369 6.80871 12.6569C6.74546 12.7043 6.68405 12.7541 6.62301 12.8044C6.54122 12.8672 6.54122 12.8672 6.4631 12.8672C6.48102 12.9036 6.49895 12.94 6.51742 12.9775C6.93909 13.8481 7.12024 14.855 6.80419 15.7968C6.45034 16.7647 5.79928 17.4715 4.86855 17.9142C4.02657 18.2925 3.05964 18.2655 2.20284 17.96C1.33135 17.6271 0.672983 16.9525 0.28054 16.1138C-0.0848358 15.2819 -0.0827295 14.3095 0.225303 13.4629C0.578219 12.6048 1.21701 11.8823 2.07884 11.5125C2.53122 11.3286 2.97915 11.2442 3.46749 11.2486C3.51347 11.2488 3.55944 11.2491 3.60681 11.2494C3.96947 11.256 4.28487 11.3008 4.62716 11.4219C4.66759 11.4356 4.70803 11.4493 4.74969 11.4634C5.24135 11.6485 5.65972 11.9561 6.03341 12.3203C6.25 12.2041 6.4373 12.0683 6.62911 11.9151C6.91741 11.6876 7.21014 11.4673 7.50676 11.2508C7.53603 11.2294 7.5653 11.208 7.59545 11.186C7.62272 11.1661 7.65 11.1462 7.6781 11.1257C7.74216 11.0778 7.80435 11.0274 7.86614 10.9767C7.94747 10.9141 7.94747 10.9141 8.0256 10.9141C8.00868 10.8727 8.00868 10.8727 7.99142 10.8305C7.81302 10.3374 7.77587 9.75199 7.97372 9.25806C8.20299 8.80827 8.51669 8.48892 8.9631 8.25785C9.11778 8.21917 9.27247 8.1805 9.43185 8.14066C9.43185 7.72816 9.43185 7.31566 9.43185 6.89066C9.29005 6.87777 9.14825 6.86488 9.00216 6.8516C8.09247 6.64273 7.30975 6.10235 6.80489 5.31595C6.29916 4.45263 6.13746 3.49826 6.38803 2.52265C6.62733 1.67608 7.16769 0.920094 7.93963 0.483741C9.37548 -0.299089 10.9577 -0.124752 12.1792 0.9556ZM7.94747 1.30472C7.91444 1.3299 7.88141 1.35508 7.84737 1.38102C7.38071 1.77289 7.074 2.39107 6.97091 2.98441C6.90959 3.78457 7.00879 4.54464 7.54266 5.18167C7.63471 5.28654 7.72937 5.38794 7.83028 5.48441C7.84317 5.48441 7.85606 5.48441 7.86935 5.48441C7.87035 5.45037 7.87136 5.41633 7.8724 5.38126C7.89852 4.83273 8.02882 4.38024 8.4298 3.98859C8.48938 3.9354 8.54969 3.88301 8.61092 3.83173C8.68022 3.77358 8.74403 3.71347 8.80685 3.64847C8.77623 3.60819 8.74562 3.56791 8.71407 3.5264C8.51632 3.2662 8.51915 2.99589 8.51876 2.68167C8.5178 2.64129 8.51685 2.60091 8.51586 2.5593C8.51463 2.23405 8.57883 1.94705 8.77755 1.68314C9.08102 1.38657 9.39869 1.28896 9.8178 1.29035C10.1615 1.29867 10.4406 1.40942 10.6818 1.65628C10.9224 1.97991 10.9694 2.26738 10.9699 2.66458C10.9709 2.7053 10.9718 2.74601 10.9728 2.78795C10.9742 3.14372 10.873 3.39124 10.6818 3.68753C10.7041 3.70365 10.7263 3.71976 10.7491 3.73636C11.1654 4.04771 11.4757 4.41476 11.5803 4.93753C11.5976 5.11964 11.6097 5.30175 11.6193 5.48441C12.1085 5.10503 12.4382 4.49703 12.5178 3.88285C12.5771 3.12956 12.4844 2.48224 12.049 1.8516C12.0262 1.81801 12.0034 1.78442 11.9799 1.74982C11.5362 1.14729 10.8521 0.793957 10.1269 0.66431C10.0519 0.653212 9.97618 0.646855 9.9006 0.640659C9.86336 0.637562 9.86336 0.637562 9.82537 0.634403C9.12961 0.604266 8.48162 0.875664 7.94747 1.30472ZM9.31466 2.08597C9.13093 2.31935 9.091 2.53475 9.11935 2.82816C9.17053 3.08797 9.2521 3.22606 9.47091 3.37503C9.61601 3.44758 9.7813 3.43139 9.93966 3.4141C10.1301 3.32238 10.2289 3.20755 10.3303 3.02347C10.42 2.73942 10.3881 2.42744 10.2522 2.1641C10.1445 2.04325 10.0193 1.93846 9.85482 1.92041C9.62726 1.91386 9.49074 1.92666 9.31466 2.08597ZM8.76778 4.54691C8.45744 4.96464 8.48315 5.45756 8.49435 5.95316C8.56498 5.98447 8.63582 6.0153 8.70675 6.04593C8.74618 6.06315 8.7856 6.08037 8.82623 6.09812C9.12623 6.20849 9.41105 6.24178 9.7297 6.24124C9.76714 6.24121 9.80457 6.24118 9.84315 6.24114C10.2605 6.23426 10.6226 6.14855 10.9943 5.95316C11.0071 5.38686 11.0155 4.88716 10.6194 4.43689C10.3696 4.20125 10.0837 4.10875 9.74435 4.09769C9.34264 4.1112 9.03631 4.2449 8.76778 4.54691ZM8.7922 9.20755C8.75648 9.25443 8.72226 9.3025 8.68966 9.3516C8.67355 9.37587 8.65743 9.40014 8.64083 9.42514C8.49106 9.69868 8.48504 10.0253 8.53341 10.3282C8.65329 10.7149 8.88716 10.9744 9.23898 11.1656C9.54719 11.2887 9.92323 11.2755 10.2326 11.1631C10.5651 11.0046 10.7546 10.7741 10.9162 10.4453C11.0237 10.1301 10.9912 9.73685 10.8502 9.43918C10.6453 9.08813 10.3562 8.88633 9.96224 8.77893C9.52111 8.71089 9.09293 8.88264 8.7922 9.20755ZM1.36834 12.8683C1.0543 13.2309 0.88879 13.6231 0.759971 14.0782C0.752985 14.1026 0.745998 14.127 0.7388 14.1522C0.583633 14.8653 0.765514 15.6272 1.14318 16.2363C1.26778 16.4197 1.41877 16.583 1.58028 16.7344C1.59317 16.7344 1.60607 16.7344 1.61935 16.7344C1.62035 16.7004 1.62136 16.6663 1.6224 16.6313C1.64852 16.0827 1.77882 15.6302 2.1798 15.2386C2.23938 15.1854 2.29969 15.133 2.36092 15.0817C2.43022 15.0236 2.49403 14.9635 2.55685 14.8985C2.52623 14.8582 2.49562 14.8179 2.46407 14.7764C2.26632 14.5162 2.26915 14.2459 2.26876 13.9317C2.2678 13.8913 2.26685 13.8509 2.26586 13.8093C2.26463 13.4841 2.32883 13.1971 2.52755 12.9331C2.83102 12.6366 3.14869 12.539 3.5678 12.5403C3.91151 12.5487 4.1906 12.6594 4.43185 12.9063C4.67239 13.2299 4.71945 13.5174 4.71993 13.9146C4.72089 13.9553 4.72185 13.996 4.72283 14.038C4.72417 14.3937 4.62301 14.6412 4.43185 14.9375C4.45405 14.9536 4.47626 14.9698 4.49914 14.9864C4.91542 15.2977 5.22573 15.6648 5.33028 16.1875C5.34755 16.3696 5.35972 16.5517 5.36935 16.7344C5.8588 16.3548 6.1875 15.7472 6.26778 15.1328C6.32708 14.3336 6.20651 13.5891 5.68032 12.9537C5.13216 12.3346 4.48602 11.9605 3.6506 11.8907C2.74556 11.8642 1.9947 12.2187 1.36834 12.8683ZM13.8683 12.8683C13.5543 13.2309 13.3888 13.6231 13.26 14.0782C13.253 14.1026 13.246 14.127 13.2388 14.1522C13.0836 14.8653 13.2655 15.6272 13.6432 16.2363C13.7678 16.4197 13.9188 16.583 14.0803 16.7344C14.0932 16.7344 14.1061 16.7344 14.1193 16.7344C14.1204 16.7004 14.1214 16.6663 14.1224 16.6313C14.1485 16.0827 14.2788 15.6302 14.6798 15.2386C14.7394 15.1854 14.7997 15.133 14.8609 15.0817C14.9302 15.0236 14.994 14.9635 15.0568 14.8985C15.0262 14.8582 14.9956 14.8179 14.9641 14.7764C14.7663 14.5162 14.7691 14.2459 14.7688 13.9317C14.7678 13.8913 14.7668 13.8509 14.7659 13.8093C14.7646 13.4841 14.8288 13.1971 15.0275 12.9331C15.331 12.6366 15.6487 12.539 16.0678 12.5403C16.4115 12.5487 16.6906 12.6594 16.9318 12.9063C17.1724 13.2299 17.2194 13.5174 17.2199 13.9146C17.2209 13.9553 17.2218 13.996 17.2228 14.038C17.2242 14.3937 17.123 14.6412 16.9318 14.9375C16.9541 14.9536 16.9763 14.9698 16.9991 14.9864C17.4154 15.2977 17.7257 15.6648 17.8303 16.1875C17.8476 16.3696 17.8597 16.5517 17.8693 16.7344C18.3588 16.3548 18.6875 15.7472 18.7678 15.1328C18.8271 14.3336 18.7065 13.5891 18.1803 12.9537C17.6322 12.3346 16.986 11.9605 16.1506 11.8907C15.2456 11.8642 14.4947 12.2187 13.8683 12.8683ZM3.06466 13.336C2.88094 13.5694 2.841 13.7848 2.86935 14.0782C2.92053 14.338 3.0021 14.4761 3.22091 14.625C3.36601 14.6976 3.5313 14.6814 3.68966 14.6641C3.88015 14.5724 3.97885 14.4576 4.08028 14.2735C4.16998 13.9894 4.13809 13.6774 4.00216 13.4141C3.89452 13.2933 3.7693 13.1885 3.60482 13.1704C3.37726 13.1639 3.24074 13.1767 3.06466 13.336ZM15.5647 13.336C15.3809 13.5694 15.341 13.7848 15.3693 14.0782C15.4205 14.338 15.5021 14.4761 15.7209 14.625C15.866 14.6976 16.0313 14.6814 16.1897 14.6641C16.3801 14.5724 16.4789 14.4576 16.5803 14.2735C16.67 13.9894 16.6381 13.6774 16.5022 13.4141C16.3945 13.2933 16.2693 13.1885 16.1048 13.1704C15.8773 13.1639 15.7407 13.1767 15.5647 13.336ZM2.51778 15.7969C2.20744 16.2146 2.23315 16.7076 2.24435 17.2032C2.31498 17.2345 2.38582 17.2653 2.45675 17.2959C2.49618 17.3132 2.5356 17.3304 2.57623 17.3481C2.87623 17.4585 3.16105 17.4918 3.4797 17.4912C3.51714 17.4912 3.55457 17.4912 3.59315 17.4911C4.0105 17.4843 4.37259 17.3986 4.74435 17.2032C4.75714 16.6369 4.76548 16.1372 4.36944 15.6869C4.11963 15.4513 3.83375 15.3587 3.49435 15.3477C3.09264 15.3612 2.78631 15.4949 2.51778 15.7969ZM15.0178 15.7969C14.7074 16.2146 14.7332 16.7076 14.7443 17.2032C14.815 17.2345 14.8858 17.2653 14.9567 17.2959C14.9962 17.3132 15.0356 17.3304 15.0762 17.3481C15.3762 17.4585 15.661 17.4918 15.9797 17.4912C16.0171 17.4912 16.0546 17.4912 16.0931 17.4911C16.5105 17.4843 16.8726 17.3986 17.2443 17.2032C17.2571 16.6369 17.2655 16.1372 16.8694 15.6869C16.6196 15.4513 16.3337 15.3587 15.9943 15.3477C15.5926 15.3612 15.2863 15.4949 15.0178 15.7969Z" fill="#C18DD9"/>
</svg>
